<?xml version="1.0" standalone="no"?>
<!DOCTYPE svg PUBLIC "-//W3C//DTD SVG 20010904//EN"
 "http://www.w3.org/TR/2001/REC-SVG-20010904/DTD/svg10.dtd">
<svg version="1.0" xmlns="http://www.w3.org/2000/svg"
 width="2178.000000pt" height="680.000000pt" viewBox="0 -182.5 2178.000000 680.000000"
 preserveAspectRatio="xMidYMid meet">
<metadata>
Created by potrace 1.16, written by Peter Selinger 2001-2019
</metadata>
<g transform="translate(0.000000,315.000000) scale(0.100000,-0.100000)"
fill="#000000" stroke="none">
<path d="M15360 3115 c0 -6 26 -51 58 -100 32 -50 87 -135 122 -190 35 -55 95
-150 134 -212 312 -493 453 -713 563 -877 62 -94 113 -173 113 -177 0 -12
-149 -263 -348 -589 -52 -85 -145 -238 -207 -340 -62 -102 -169 -277 -239
-390 l-126 -205 27 -6 c16 -4 179 -7 364 -8 l337 -1 24 33 c32 42 349 572 686
1147 30 52 91 154 134 227 43 72 78 136 78 141 0 6 -17 37 -39 69 -86 130
-528 843 -721 1163 -118 195 -194 316 -204 323 -17 12 -756 4 -756 -8z M17335
3120 c-25 -4 -46 -32 -162 -215 -376 -594 -377 -596 -366 -613 5 -10 22 -39
37 -65 14 -26 35 -60 45 -75 11 -15 71 -110 134 -212 64 -102 124 -196 135
-209 l19 -25 15 25 c9 13 124 197 256 409 132 212 323 518 425 680 102 162
184 297 181 299 -6 6 -685 8 -719 1z M18616 3115 c-21 -7 -59 -33 -83 -57
-117 -113 -419 -421 -427 -435 -13 -23 -19 -388 -7 -410 9 -17 28 -18 303 -17
161 1 303 2 316 3 21 1 22 4 22 102 l0 100 82 80 82 79 265 0 266 0 81 -80 80
-79 -1 -191 -1 -191 -79 -79 -80 -80 -262 0 -263 0 2 -277 3 -278 290 -3 289
-2 34 -33 c19 -17 52 -54 73 -80 l39 -49 0 -191 0 -191 -89 -88 -89 -88 -282
0 -283 0 -88 87 -89 87 0 118 0 118 -330 0 -330 0 0 -209 c0 -115 4 -221 10
-236 15 -41 458 -485 505 -506 37 -17 78 -19 598 -19 479 0 563 2 595 15 38
16 426 393 483 469 l29 39 0 362 0 362 -29 40 c-16 23 -38 47 -49 54 -34 24
-252 236 -252 245 0 5 66 75 148 156 l147 148 3 330 c2 208 -1 343 -7 367 -9
30 -57 85 -228 259 -120 122 -231 230 -248 240 -27 18 -60 19 -570 21 -436 1
-548 -1 -579 -12z M17 3093 c-9 -47 -6 -534 4 -559 l9 -24 897 0 898 0 127
-129 128 -128 0 -683 0 -682 -124 -124 -125 -124 -385 0 -386 0 0 -299 c0
-280 1 -300 18 -305 10 -4 250 -5 533 -4 456 3 518 5 549 20 48 22 541 522
566 573 18 39 19 68 19 945 l0 905 -27 45 c-15 25 -146 165 -290 311 -223 225
-269 268 -304 278 -30 8 -333 11 -1071 11 l-1031 0 -5 -27z M7905 3108 c-3 -7
-4 -528 -3 -1158 l3 -1145 328 -3 327 -2 0 1160 0 1160 -325 0 c-251 0 -327
-3 -330 -12z M12586 3104 c-3 -8 -6 -672 -6 -1474 0 -1340 -1 -1460 -16 -1468
-11 -6 -18 -27 -22 -60 -4 -49 -3 -52 23 -62 31 -12 484 -13 502 -2 5 4 12 57
15 120 4 86 10 118 22 130 10 10 16 12 16 4 0 -8 7 -9 27 -1 29 11 13 23 183
-141 52 -50 107 -98 121 -105 21 -11 88 -14 340 -12 375 3 347 -6 495 154 113
122 273 300 320 354 l31 37 8 233 c4 129 8 414 9 634 l3 399 -121 130 c-251
270 -328 344 -371 355 -24 7 -163 11 -347 11 l-307 0 -45 -31 c-25 -16 -87
-69 -138 -116 l-93 -85 -5 503 -5 504 -316 3 c-282 2 -317 1 -323 -14z m1270
-1334 c16 -6 62 -46 102 -89 l72 -80 0 -415 0 -415 -49 -58 c-27 -32 -63 -71
-80 -88 l-32 -30 -190 -4 c-104 -2 -201 0 -215 3 -14 4 -79 59 -145 123 l-120
116 1 343 c1 300 3 346 18 372 9 17 61 76 115 131 l97 101 199 0 c109 0 211
-5 227 -10z M14800 2562 l0 -352 87 -107 c48 -60 142 -175 208 -258 66 -82
159 -197 207 -255 l85 -105 -74 -95 c-74 -93 -327 -416 -430 -549 l-52 -66 -6
-363 c-3 -199 -4 -362 -2 -362 2 0 87 113 188 251 169 229 206 281 308 425 19
27 80 110 135 184 196 266 234 316 313 425 44 61 88 122 98 138 20 32 46 -8
-205 314 -155 198 -222 285 -444 572 -175 225 -361 474 -382 507 -11 18 -23
37 -27 40 -4 4 -7 -151 -7 -344z M442 2345 c-10 -5 -63 -58 -120 -116 l-102
-106 -3 -1041 -4 -1042 31 -5 c17 -3 170 -4 341 -3 l310 3 0 1159 0 1160 -218
0 c-129 1 -225 -3 -235 -9z M10699 2331 c-60 -39 -395 -379 -409 -414 -5 -16
-10 -87 -10 -158 l0 -129 300 0 300 0 0 28 c0 50 90 155 146 170 16 5 116 6
223 4 l195 -4 49 -46 c88 -83 88 -83 93 -253 2 -83 2 -154 -1 -159 -3 -5 -42
8 -88 28 l-82 37 -385 0 -385 0 -39 -27 c-63 -44 -357 -340 -372 -375 -17 -39
-20 -535 -4 -578 14 -37 335 -372 389 -407 l45 -28 350 0 c326 0 353 1 382 19
17 10 78 67 135 125 57 58 109 106 114 106 6 0 26 -50 45 -111 21 -69 40 -114
51 -120 10 -5 137 -9 283 -9 l266 0 0 23 c0 12 -7 54 -16 92 -60 273 -56 192
-52 990 3 669 2 732 -14 760 -29 51 -419 433 -460 450 -32 13 -109 15 -521 15
l-483 0 -45 -29z m881 -1485 l0 -144 -106 -85 c-74 -60 -116 -86 -142 -91 -20
-3 -108 -6 -194 -6 l-158 0 -80 71 -80 70 -2 67 c0 37 -2 74 -3 82 -3 30 26
70 90 124 l66 56 305 0 304 0 0 -144z M3540 2320 c-19 -10 -130 -114 -246
-232 -171 -173 -214 -221 -223 -253 -7 -27 -11 -239 -11 -661 0 -516 2 -627
14 -656 17 -40 442 -467 483 -485 21 -9 167 -12 556 -13 507 0 529 1 567 20
21 11 136 118 255 237 170 172 218 226 226 255 5 21 8 86 7 145 l-3 108 -295
3 c-162 1 -305 0 -317 -3 -20 -5 -23 -12 -23 -59 l0 -53 -75 -72 -76 -72 -260
1 -261 1 -84 81 -84 81 0 148 0 149 738 2 737 3 3 400 c2 252 -1 413 -7 435
-13 45 -427 468 -483 493 -32 15 -94 17 -570 17 -500 -1 -535 -2 -568 -20z
m917 -572 l72 -73 3 -128 3 -127 -422 0 -423 0 0 122 0 123 77 77 78 78 270 0
271 0 71 -72z M5249 2323 c5 -10 39 -103 75 -208 37 -104 78 -217 90 -250 26
-66 74 -200 135 -375 21 -63 60 -171 84 -240 25 -69 87 -240 137 -380 51 -140
109 -302 130 -360 21 -58 41 -114 45 -125 4 -11 11 -29 15 -40 5 -11 13 -36
19 -55 8 -31 49 -144 80 -223 12 -32 -19 -29 379 -32 154 -2 265 1 268 7 5 7
-40 133 -86 243 -7 18 -50 136 -224 615 -25 70 -46 131 -46 138 0 7 -4 20 -9
30 -6 9 -19 46 -30 82 -50 165 -104 341 -126 405 -21 64 -66 208 -117 375 -11
36 -32 103 -48 150 -15 47 -40 124 -55 173 l-27 87 -349 0 c-330 0 -349 -1
-340 -17z M6955 2328 c-9 -24 -53 -164 -90 -283 -35 -113 -62 -201 -200 -640
-32 -99 -77 -245 -101 -324 l-44 -145 26 -71 c15 -38 37 -92 49 -120 12 -27
41 -97 65 -155 37 -91 103 -248 145 -345 7 -16 16 -40 20 -52 3 -13 12 -23 18
-23 7 0 50 103 95 228 46 125 122 331 169 457 47 127 105 284 128 350 47 131
170 470 290 800 43 116 86 234 96 262 10 29 19 57 19 63 0 16 -679 14 -685 -2z
M17173 1403 c-17 -27 -87 -144 -157 -260 -69 -117 -140 -234 -156 -260 -17
-26 -30 -50 -30 -54 0 -3 19 -35 43 -70 23 -35 83 -127 132 -204 87 -138 147
-230 278 -432 l67 -103 396 0 c218 0 394 3 392 8 -1 4 -115 176 -253 383 -137
207 -298 450 -356 540 -59 90 -156 239 -216 332 l-111 168 -29 -48z M7900 341
l0 -299 23 -6 c35 -8 2050 -7 2062 2 6 4 9 114 7 305 l-3 297 -1044 0 -1045 0
0 -299z M20430 175 l0 -155 665 0 665 0 0 155 0 155 -665 0 -665 0 0 -155z"/>
</g>
</svg>
