<?xml version="1.0" encoding="UTF-8" standalone="no"?>
<!-- Created with Inkscape (http://www.inkscape.org/) -->

<svg
   version="1.1"
   id="svg1"
   width="1383.4933"
   height="433.02133"
   viewBox="0 0 1383.4933 433.02133"
   sodipodi:docname="Logo Medellín Blockchain Community.ai"
   xmlns:inkscape="http://www.inkscape.org/namespaces/inkscape"
   xmlns:sodipodi="http://sodipodi.sourceforge.net/DTD/sodipodi-0.dtd"
   xmlns="http://www.w3.org/2000/svg"
   xmlns:svg="http://www.w3.org/2000/svg">
  <defs
     id="defs1">
    <clipPath
       clipPathUnits="userSpaceOnUse"
       id="clipPath2">
      <path
         d="M 0,324.766 H 1037.617 V 0 H 0 Z"
         transform="translate(-295.37881,-231.13181)"
         id="path2" />
    </clipPath>
    <clipPath
       clipPathUnits="userSpaceOnUse"
       id="clipPath4">
      <path
         d="M 0,324.766 H 1037.617 V 0 H 0 Z"
         transform="translate(-460.67711,-225.62081)"
         id="path4" />
    </clipPath>
    <clipPath
       clipPathUnits="userSpaceOnUse"
       id="clipPath6">
      <path
         d="M 0,324.766 H 1037.617 V 0 H 0 Z"
         transform="translate(-514.90951,-155.6288)"
         id="path6" />
    </clipPath>
    <clipPath
       clipPathUnits="userSpaceOnUse"
       id="clipPath8">
      <path
         d="M 0,324.766 H 1037.617 V 0 H 0 Z"
         transform="translate(-644.40851,-225.62081)"
         id="path8" />
    </clipPath>
    <clipPath
       clipPathUnits="userSpaceOnUse"
       id="clipPath10">
      <path
         d="M 0,324.766 H 1037.617 V 0 H 0 Z"
         transform="translate(-680.25322,-225.62081)"
         id="path10" />
    </clipPath>
    <clipPath
       clipPathUnits="userSpaceOnUse"
       id="clipPath12">
      <path
         d="M 0,324.766 H 1037.617 V 0 H 0 Z"
         transform="translate(-758.69072,-225.62081)"
         id="path12" />
    </clipPath>
    <clipPath
       clipPathUnits="userSpaceOnUse"
       id="clipPath14">
      <path
         d="M 0,324.766 H 1037.617 V 0 H 0 Z"
         transform="translate(-837.12925,-225.62081)"
         id="path14" />
    </clipPath>
    <clipPath
       clipPathUnits="userSpaceOnUse"
       id="clipPath16">
      <path
         d="M 0,324.766 H 1037.617 V 0 H 0 Z"
         transform="translate(-872.98855,-231.13181)"
         id="path16" />
    </clipPath>
    <clipPath
       clipPathUnits="userSpaceOnUse"
       id="clipPath18">
      <path
         d="M 0,324.766 H 1037.617 V 0 H 0 Z"
         transform="translate(-219.18991,-131.4169)"
         id="path18" />
    </clipPath>
    <clipPath
       clipPathUnits="userSpaceOnUse"
       id="clipPath20">
      <path
         d="M 0,324.766 H 1037.617 V 0 H 0 Z"
         transform="translate(-135.5854,-138.0557)"
         id="path20" />
    </clipPath>
    <clipPath
       clipPathUnits="userSpaceOnUse"
       id="clipPath22">
      <path
         d="M 0,324.766 H 1037.617 V 0 H 0 Z"
         transform="translate(-123.3963,-170.6266)"
         id="path22" />
    </clipPath>
    <clipPath
       clipPathUnits="userSpaceOnUse"
       id="clipPath24">
      <path
         d="M 0,324.766 H 1037.617 V 0 H 0 Z"
         transform="translate(-150.6063,-192.2842)"
         id="path24" />
    </clipPath>
    <clipPath
       clipPathUnits="userSpaceOnUse"
       id="clipPath26">
      <path
         d="M 0,324.766 H 1037.617 V 0 H 0 Z"
         transform="translate(-179.6113,-173.0986)"
         id="path26" />
    </clipPath>
    <clipPath
       clipPathUnits="userSpaceOnUse"
       id="clipPath28">
      <path
         d="M 0,324.766 H 1037.617 V 0 H 0 Z"
         transform="translate(-170.328,-139.58431)"
         id="path28" />
    </clipPath>
  </defs>
  <sodipodi:namedview
     id="namedview1"
     pagecolor="#ffffff"
     bordercolor="#000000"
     borderopacity="0.25"
     inkscape:showpageshadow="2"
     inkscape:pageopacity="0.0"
     inkscape:pagecheckerboard="0"
     inkscape:deskcolor="#d1d1d1">
    <inkscape:page
       x="0"
       y="0"
       inkscape:label="1"
       id="page1"
       width="1383.4933"
       height="433.02133"
       margin="93.17173 136.62933 100.39066 98.656136"
       bleed="0" />
  </sodipodi:namedview>
  <g
     id="layer-MC0"
     inkscape:groupmode="layer"
     inkscape:label="Capa 2">
    <path
       id="path1"
       d="m 0,0 c 2.348,0 4.438,-1.487 5.207,-3.705 l 20.805,-59.992 h 0.265 L 45.932,-3.793 C 46.675,-1.53 48.787,0 51.168,0 h 19.731 c 3.044,0 5.511,-2.467 5.511,-5.511 v -81.605 c 0,-3.044 -2.467,-5.511 -5.511,-5.511 h -8.423 c -3.043,0 -5.511,2.467 -5.511,5.511 v 60.133 H 56.701 L 34.849,-88.949 c -0.777,-2.204 -2.86,-3.678 -5.197,-3.678 h -8.218 c -2.331,0 -4.41,1.466 -5.192,3.662 l -21.844,61.332 h -0.265 v -59.483 c 0,-3.044 -2.467,-5.511 -5.511,-5.511 h -8.423 c -3.043,0 -5.511,2.467 -5.511,5.511 v 81.605 c 0,3.044 2.468,5.511 5.511,5.511 z"
       style="fill:#ffffff;fill-opacity:1;fill-rule:nonzero;stroke:none"
       transform="matrix(1.3333333,0,0,-1.3333333,393.8384,124.8456)"
       clip-path="url(#clipPath2)" />
    <path
       id="path3"
       d="m 0,0 v -6.102 c 0,-3.044 -2.467,-5.511 -5.511,-5.511 h -38.846 c -3.044,0 -5.511,-2.467 -5.511,-5.511 v -8.827 c 0,-3.043 2.467,-5.511 5.511,-5.511 h 34.745 c 3.044,0 5.511,-2.467 5.511,-5.511 v -4.805 c 0,-3.043 -2.467,-5.511 -5.511,-5.511 h -34.745 c -3.044,0 -5.511,-2.467 -5.511,-5.511 v -11.681 c 0,-3.044 2.467,-5.511 5.511,-5.511 h 39.905 c 3.043,0 5.511,-2.467 5.511,-5.511 v -6.102 c 0,-3.044 -2.468,-5.511 -5.511,-5.511 h -60.673 c -3.043,0 -5.511,2.467 -5.511,5.511 V 0 c 0,3.044 2.468,5.511 5.511,5.511 H -5.511 C -2.467,5.511 0,3.044 0,0"
       style="fill:#ffffff;fill-opacity:1;fill-rule:nonzero;stroke:none"
       transform="matrix(1.3333333,0,0,-1.3333333,614.23613,132.1936)"
       clip-path="url(#clipPath4)" />
    <path
       id="path5"
       d="m 0,0 c 12.964,0 23.678,7.914 23.678,27.893 0,22.053 -9.921,30.486 -27.249,30.486 h -9.305 c -3.043,0 -5.511,-2.467 -5.511,-5.511 V 5.511 C -18.387,2.467 -15.919,0 -12.876,0 Z m 1.323,75.503 c 26.191,0 43.122,-16.606 43.122,-45.795 0,-29.188 -16.137,-46.832 -42.593,-46.832 h -35.495 c -3.044,0 -5.511,2.467 -5.511,5.511 v 81.605 c 0,3.044 2.467,5.511 5.511,5.511 z"
       style="fill:#ffffff;fill-opacity:1;fill-rule:nonzero;stroke:none"
       transform="matrix(1.3333333,0,0,-1.3333333,686.546,225.51627)"
       clip-path="url(#clipPath6)" />
    <path
       id="path7"
       d="m 0,0 v -6.102 c 0,-3.044 -2.467,-5.511 -5.511,-5.511 h -38.847 c -3.044,0 -5.511,-2.467 -5.511,-5.511 v -8.827 c 0,-3.043 2.467,-5.511 5.511,-5.511 h 34.746 c 3.044,0 5.511,-2.467 5.511,-5.511 v -4.805 c 0,-3.043 -2.467,-5.511 -5.511,-5.511 h -34.746 c -3.044,0 -5.511,-2.467 -5.511,-5.511 v -11.681 c 0,-3.044 2.467,-5.511 5.511,-5.511 h 39.905 c 3.043,0 5.511,-2.467 5.511,-5.511 v -6.102 c 0,-3.044 -2.468,-5.511 -5.511,-5.511 h -60.673 c -3.043,0 -5.511,2.467 -5.511,5.511 V 0 c 0,3.044 2.468,5.511 5.511,5.511 H -5.511 C -2.467,5.511 0,3.044 0,0"
       style="fill:#ffffff;fill-opacity:1;fill-rule:nonzero;stroke:none"
       transform="matrix(1.3333333,0,0,-1.3333333,859.21133,132.1936)"
       clip-path="url(#clipPath8)" />
    <path
       id="path9"
       d="m 0,0 v -64.481 c 0,-3.044 2.467,-5.511 5.511,-5.511 h 35.011 c 3.044,0 5.511,-2.467 5.511,-5.511 v -6.102 c 0,-3.044 -2.467,-5.511 -5.511,-5.511 h -55.779 c -3.043,0 -5.511,2.467 -5.511,5.511 V 0 c 0,3.044 2.468,5.511 5.511,5.511 h 9.746 C -2.467,5.511 0,3.044 0,0"
       style="fill:#ffffff;fill-opacity:1;fill-rule:nonzero;stroke:none"
       transform="matrix(1.3333333,0,0,-1.3333333,907.00427,132.1936)"
       clip-path="url(#clipPath10)" />
    <path
       id="path11"
       d="m 0,0 v -64.481 c 0,-3.044 2.467,-5.511 5.511,-5.511 h 35.011 c 3.044,0 5.511,-2.467 5.511,-5.511 v -6.102 c 0,-3.044 -2.467,-5.511 -5.511,-5.511 h -55.779 c -3.043,0 -5.511,2.467 -5.511,5.511 V 0 c 0,3.044 2.468,5.511 5.511,5.511 h 9.746 C -2.467,5.511 0,3.044 0,0"
       style="fill:#ffffff;fill-opacity:1;fill-rule:nonzero;stroke:none"
       transform="matrix(1.3333333,0,0,-1.3333333,1011.5876,132.1936)"
       clip-path="url(#clipPath12)" />
    <path
       id="path13"
       d="m 0,0 v -81.605 c 0,-3.044 -2.467,-5.511 -5.511,-5.511 h -9.746 c -3.043,0 -5.511,2.467 -5.511,5.511 V 0 c 0,3.044 2.468,5.511 5.511,5.511 h 9.746 C -2.467,5.511 0,3.044 0,0"
       style="fill:#ffffff;fill-opacity:1;fill-rule:nonzero;stroke:none"
       transform="matrix(1.3333333,0,0,-1.3333333,1116.1723,132.1936)"
       clip-path="url(#clipPath14)" />
    <path
       id="path15"
       d="m 0,0 c 1.887,0 3.643,-0.965 4.654,-2.559 l 37.795,-59.582 h 0.265 v 56.63 c 0,3.044 2.467,5.511 5.511,5.511 h 8.423 c 3.044,0 5.511,-2.467 5.511,-5.511 v -81.605 c 0,-3.044 -2.467,-5.511 -5.511,-5.511 H 44.423 c -1.888,0 -3.645,0.967 -4.655,2.562 L 2.105,-30.616 H 1.84 v -56.5 c 0,-3.044 -2.467,-5.511 -5.511,-5.511 h -8.423 c -3.044,0 -5.511,2.467 -5.511,5.511 v 81.605 c 0,3.044 2.467,5.511 5.511,5.511 z"
       style="fill:#ffffff;fill-opacity:1;fill-rule:nonzero;stroke:none"
       transform="matrix(1.3333333,0,0,-1.3333333,1163.9847,124.8456)"
       clip-path="url(#clipPath16)" />
    <text
       id="text16"
       xml:space="preserve"
       transform="matrix(1.3333333,0,0,1.2900005,371.6432,323.0604)"><tspan
         id="tspan16"
         style="font-variant:normal;font-weight:800;font-stretch:normal;font-size:44.8805px;font-family:Nexa-ExtraBold;writing-mode:lr-tb;fill:#ffffff;fill-opacity:1;fill-rule:nonzero;stroke:none"
         x="0"
         dx="0 1.615698 0.98737103 1.615698 1.615698 -0.35904399 1.615698 1.615698 1.615698 1.615698 1.615698 1.615698 0.75848043 1.615698 1.615698 1.615698 1.615698 1.615698 1.615698 1.615698"
         y="0">BLOCKCHAIN COMMUNITY</tspan></text>
    <path
       id="path17"
       d="m 0,0 c -0.091,-5.528 -3.123,-10.587 -7.956,-13.272 l -53.413,-29.68 c -4.832,-2.685 -10.73,-2.588 -15.471,0.254 l -52.41,31.418 c -4.742,2.842 -7.607,7.998 -7.516,13.525 l 1.003,61.097 c 0.091,5.528 3.123,10.587 7.956,13.272 l 53.413,29.68 c 4.832,2.685 10.73,2.588 15.471,-0.254 L -6.513,74.623 C -1.771,71.78 1.094,66.624 1.003,61.097 Z m 2.499,78.945 -61.856,37.08 c -4.375,2.622 -9.816,2.712 -14.275,0.234 l -63.04,-35.029 c -4.458,-2.477 -7.256,-7.145 -7.34,-12.245 l -1.184,-72.109 c -0.084,-5.099 2.56,-9.856 6.934,-12.479 l 61.856,-37.079 c 4.375,-2.623 9.816,-2.712 14.275,-0.235 l 63.04,35.029 c 4.458,2.478 7.256,7.145 7.34,12.245 l 1.184,72.109 c 0.084,5.1 -2.56,9.857 -6.934,12.479"
       style="fill:#ffffff;fill-opacity:1;fill-rule:nonzero;stroke:none"
       transform="matrix(1.3333333,0,0,-1.3333333,292.2532,257.7988)"
       clip-path="url(#clipPath18)" />
    <path
       id="path19"
       d="m 0,0 c -5.57,21.653 -18.001,30.346 -39.352,32.933 -6.393,0.767 -13.017,1 -19.935,1.558 -0.15,-0.011 -0.314,0.104 -0.293,0.27 0.009,0.114 0.095,0.204 0.203,0.222 2.991,0.515 7.037,1.21 10.006,1.494 16.425,1.812 36.192,-1.259 44.966,-16.981 C -0.996,13.587 0.669,6.764 0.499,-0.028 0.439,-0.337 0.054,-0.363 0,0"
       style="fill:#ffffff;fill-opacity:1;fill-rule:nonzero;stroke:none"
       transform="matrix(1.3333333,0,0,-1.3333333,180.78053,248.94707)"
       clip-path="url(#clipPath20)" />
    <path
       id="path21"
       d="m 0,0 c 18.872,11.988 23.298,26.498 19.16,47.603 -1.246,6.317 -3.071,12.689 -4.678,19.441 -0.057,0.139 0.002,0.33 0.166,0.362 0.112,0.026 0.223,-0.028 0.274,-0.125 1.414,-2.685 3.326,-6.319 4.513,-9.054 C 26.234,43.165 29.422,23.417 17.181,10.214 12.615,5.146 6.639,1.454 0.128,-0.483 -0.184,-0.522 -0.329,-0.164 0,0"
       style="fill:#ffffff;fill-opacity:1;fill-rule:nonzero;stroke:none"
       transform="matrix(1.3333333,0,0,-1.3333333,164.5284,205.5192)"
       clip-path="url(#clipPath22)" />
    <path
       id="path23"
       d="m 0,0 c 17.233,-14.244 32.4,-13.969 51.194,-3.512 5.623,3.137 11.119,6.841 17.044,10.456 0.115,0.097 0.314,0.101 0.395,-0.046 C 68.693,6.8 68.676,6.677 68.599,6.599 66.483,4.424 63.618,1.484 61.383,-0.491 49.159,-11.611 31.363,-20.745 15.023,-13.183 8.792,-10.407 3.434,-5.865 -0.42,-0.271 -0.553,0.014 -0.258,0.262 0,0"
       style="fill:#ffffff;fill-opacity:1;fill-rule:nonzero;stroke:none"
       transform="matrix(1.3333333,0,0,-1.3333333,200.8084,176.6424)"
       clip-path="url(#clipPath24)" />
    <path
       id="path25"
       d="m 0,0 c -8.221,-20.791 -3.273,-35.131 12.479,-49.774 4.722,-4.378 9.943,-8.46 15.212,-12.978 0.128,-0.079 0.193,-0.268 0.078,-0.39 -0.074,-0.087 -0.196,-0.109 -0.295,-0.061 -2.722,1.341 -6.404,3.158 -8.973,4.673 -14.353,8.189 -28.539,22.292 -26.397,40.168 0.715,6.784 3.379,13.283 7.508,18.678 C -0.158,0.531 0.17,0.326 0,0"
       style="fill:#ffffff;fill-opacity:1;fill-rule:nonzero;stroke:none"
       transform="matrix(1.3333333,0,0,-1.3333333,239.48173,202.2232)"
       clip-path="url(#clipPath26)" />
    <path
       id="path27"
       d="m 0,0 c -22.314,1.394 -34.423,-7.743 -43.481,-27.249 -2.705,-5.844 -4.974,-12.071 -7.643,-18.478 -0.036,-0.146 -0.195,-0.266 -0.347,-0.195 -0.106,0.044 -0.164,0.153 -0.148,0.262 0.434,3.003 1.023,7.066 1.671,9.977 3.353,16.181 12.381,34.032 30.045,37.518 C -13.23,3.252 -6.226,2.726 0.181,0.466 0.456,0.314 0.362,-0.061 0,0"
       style="fill:#ffffff;fill-opacity:1;fill-rule:nonzero;stroke:none"
       transform="matrix(1.3333333,0,0,-1.3333333,227.104,246.90893)"
       clip-path="url(#clipPath28)" />
  </g>
</svg>
