<svg width="64" height="64" viewBox="0 0 64 64" fill="none" xmlns="http://www.w3.org/2000/svg">
<path d="M19.4196 28.5715C18.6895 31.2506 25.8922 43.8501 28.5713 44.5802C31.2503 45.3102 43.8497 38.1075 44.5799 35.4283C45.31 32.7493 38.1073 20.1499 35.4281 19.4198C32.749 18.6898 20.1498 25.8923 19.4196 28.5715Z" fill="white"/>
<path fill-rule="evenodd" clip-rule="evenodd" d="M8 0C3.58173 0 0 3.58173 0 8V56C0 60.4182 3.58173 64 8 64H56C60.4182 64 64 60.4182 64 56V8C64 3.58173 60.4182 0 56 0H8ZM10 31.9998C10 25.6464 25.6467 10 31.9998 10C38.3533 10 54 25.6467 54 31.9998C54 38.353 38.353 54 31.9998 54C25.6467 54 10 38.3533 10 31.9998Z" fill="white"/>
</svg>
